<svg xmlns="http://www.w3.org/2000/svg" xmlns:xlink="http://www.w3.org/1999/xlink" fill="none" version="1.1" width="14" height="20" viewBox="0 0 14 20"><defs><clipPath id="master_svg0_1_093"><rect x="0" y="3" width="14" height="14" rx="0"/></clipPath></defs><g><rect x="0" y="0" width="14" height="20" rx="0" fill="#000000" fill-opacity="0" style="mix-blend-mode:passthrough"/><g clip-path="url(#master_svg0_1_093)"><g transform="matrix(1,0,0,-1,0,32.6875)"><g><path d="M6.17969,16.671875L6.09766,16.726562L6.17969,16.671875L6.09766,16.726562L1.3125,21.18359Q0.0273438,22.41406,0,24.19141L0,24.27344Q0.0273438,25.75,0.929688,26.84375Q1.80469,27.91015,3.25391,28.21095Q4.94922,28.51175,6.31641,27.554650000000002Q6.69922,27.30855,7,26.95315Q7.16406,27.144550000000002,7.38281,27.30855Q7.51953,27.445349999999998,7.68359,27.554650000000002Q9.05078,28.51175,10.7461,28.23825Q12.1953,27.93755,13.0703,26.84375Q13.9727,25.75,14,24.27344L14,24.19141Q13.9727,22.41406,12.6875,21.18359L7.90234,16.726562L7.82031,16.671875Q7.46484,16.34375,7,16.34375Q6.53516,16.34375,6.17969,16.671875ZM6.53516,25.503909999999998L6.50781,25.53125L6.01562,26.07813Q5.52344,26.62495,4.86719,26.84375Q4.21094,27.06255,3.5,26.92575Q2.54297,26.73435,1.94141,25.996090000000002Q1.33984,25.285159999999998,1.3125,24.27344L1.3125,24.19141Q1.33984,22.98828,2.21484,22.14063L7,17.68359L11.7852,22.14063Q12.6602,22.98828,12.6875,24.19141L12.6875,24.27344Q12.6602,25.285159999999998,12.0586,25.996090000000002Q11.457,26.73435,10.5,26.92575Q9.78906,27.06255,9.13281,26.84375Q8.47656,26.62495,7.98438,26.07813L7.49219,25.53125L7.46484,25.503909999999998Q7.27344,25.3125,7,25.3125Q6.72656,25.3125,6.53516,25.503909999999998Z" fill="#9CA3AF" fill-opacity="1" style="mix-blend-mode:passthrough"/></g></g></g></g></svg>