<svg xmlns="http://www.w3.org/2000/svg" xmlns:xlink="http://www.w3.org/1999/xlink" fill="none" version="1.1" width="10.5" height="14" viewBox="0 0 10.5 14"><defs><clipPath id="master_svg0_1_068"><rect x="0" y="0" width="10.5" height="14" rx="0"/></clipPath></defs><g clip-path="url(#master_svg0_1_068)"><g transform="matrix(1,0,0,-1,0,28.546875)"><g><path d="M5.90625,14.6015625Q6.64453,15.5039075,7.71094,17.0351575Q8.77734,18.5390575,9.625,20.1523475Q10.4453,21.7656275,10.5,22.996097499999998Q10.4453,25.2382375,8.96875,26.7148375Q7.49219,28.1914375,5.25,28.2461375Q3.00781,28.1914375,1.53125,26.7148375Q0.0546875,25.2382375,0,22.996097499999998Q0.0546875,21.7656275,0.875,20.1523475Q1.72266,18.5390575,2.78906,17.0351575Q3.85547,15.5039075,4.59375,14.6015625Q4.86719,14.2734375,5.25,14.2734375Q5.63281,14.2734375,5.90625,14.6015625ZM5.25,24.7461375Q6.23438,24.7187375,6.75391,23.871097499999998Q7.24609,22.996097499999998,6.75391,22.1210975Q6.23438,21.2734375,5.25,21.2460975Q4.26562,21.2734375,3.74609,22.1210975Q3.25391,22.996097499999998,3.74609,23.871097499999998Q4.26562,24.7187375,5.25,24.7461375Z" fill="#4B5563" fill-opacity="1" style="mix-blend-mode:passthrough"/></g></g></g></svg>