<svg xmlns="http://www.w3.org/2000/svg" xmlns:xlink="http://www.w3.org/1999/xlink" fill="none" version="1.1" width="14" height="14" viewBox="0 0 14 14"><defs><clipPath id="master_svg0_1_063"><rect x="0" y="0" width="14" height="14" rx="0"/></clipPath></defs><g clip-path="url(#master_svg0_1_063)"><g transform="matrix(1,0,0,-1,0,26.8515625)"><g><path d="M3.70417,22.640621250000002Q2.94583,21.90234125,2.59583,21.00000125Q2.45,20.67187125,2.12917,20.50781125Q1.77917,20.37109125,1.4,20.48047125Q1.05,20.61719125,0.875,20.91797125Q0.729167,21.24609125,0.845833,21.60156125Q1.3125,22.859371250000002,2.39167,23.87108125Q3.675,25.074181250000002,5.3375,25.48438125Q6.97083,25.86718125,8.63333,25.48438125Q10.2958,25.101581250000002,11.5792,23.89848125L12.8042,25.04688125Q13.1542,25.34768125,13.5625,25.18358125Q13.9708,25.01958125,14,24.58198125L14,21.08203125Q13.9417,20.48047125,13.3,20.42578125L13.0667,20.42578125L9.56667,20.42578125Q9.1,20.45312125,8.925,20.83594125Q8.75,21.21875125,9.07083,21.546871250000002L10.2667,22.66797125Q8.8375,23.92578125,6.97083,23.92578125Q5.13333,23.92578125,3.70417,22.640621250000002ZM0,18.01953125Q0.0583333,18.62109125,0.7,18.67578125L0.933333,18.67578125L4.43333,18.67578125Q4.9,18.64844125,5.075,18.26562125Q5.25,17.88281125,4.92917,17.55469125L3.73333,16.43359125Q5.1625,15.17578125,7.02917,15.17578125Q8.86667,15.17578125,10.2958,16.46094125Q11.0542,17.19922125,11.4042,18.10156125Q11.55,18.42969125,11.8708,18.59375125Q12.2208,18.73047125,12.6,18.62109125Q12.95,18.48437125,13.125,18.18359125Q13.3,17.85547125,13.1542,17.50000125Q12.6875,16.24219125,11.6083,15.23047125Q10.325,14.02734325,8.6625,13.61718725Q7.02917,13.23437525,5.36667,13.61718725Q3.70417,14.00000025,2.42083,15.20312125L1.19583,14.05468725Q0.845833,13.75390625,0.4375,13.91796825Q0.0291667,14.08203125,0,14.51953125L0,17.80078125L0,18.01953125Z" fill="#000000" fill-opacity="1" style="mix-blend-mode:passthrough"/></g></g></g></svg>