<svg xmlns="http://www.w3.org/2000/svg" xmlns:xlink="http://www.w3.org/1999/xlink" fill="none" version="1.1" width="17.5" height="28" viewBox="0 0 17.5 28"><defs><clipPath id="master_svg0_1_088"><rect x="0" y="4" width="17.5" height="20" rx="0"/></clipPath></defs><g><rect x="0" y="0" width="17.5" height="28" rx="0" fill="#000000" fill-opacity="0" style="mix-blend-mode:passthrough"/><g clip-path="url(#master_svg0_1_088)"><g transform="matrix(1,0,0,-1,0,48.859375)"><g><path d="M8.75,34.4296875Q10.1172,34.4296875,11.25,35.0937875Q12.3828,35.7577875,13.0859,36.9296875Q13.75,38.1015875,13.75,39.4296875Q13.75,40.7577875,13.0859,41.9296875Q12.3828,43.1015875,11.25,43.765587499999995Q10.1172,44.4296875,8.75,44.4296875Q7.38281,44.4296875,6.25,43.765587499999995Q5.11719,43.1015875,4.41406,41.9296875Q3.75,40.7577875,3.75,39.4296875Q3.75,38.1015875,4.41406,36.9296875Q5.11719,35.7577875,6.25,35.0937875Q7.38281,34.4296875,8.75,34.4296875ZM6.95312,32.5546875Q4.02344,32.4765675,2.03125,30.5234375Q0.078125,28.5312475,0,25.6015675Q0,25.0937495,0.351562,24.7812495Q0.664062,24.4296875,1.17188,24.4296875L16.3281,24.4296875Q16.8359,24.4296875,17.1484,24.7812495Q17.5,25.0937495,17.5,25.6015675Q17.4219,28.5312475,15.4688,30.5234375Q13.4766,32.4765675,10.5469,32.5546875L6.95312,32.5546875Z" fill="#6B7280" fill-opacity="1" style="mix-blend-mode:passthrough"/></g></g></g></g></svg>