<svg xmlns="http://www.w3.org/2000/svg" xmlns:xlink="http://www.w3.org/1999/xlink" fill="none" version="1.1" width="20" height="28" viewBox="0 0 20 28"><defs><clipPath id="master_svg0_1_078"><rect x="0" y="4" width="20" height="20" rx="0"/></clipPath></defs><g><rect x="0" y="0" width="20" height="28" rx="0" fill="#000000" fill-opacity="0" style="mix-blend-mode:passthrough"/><g clip-path="url(#master_svg0_1_078)"><g transform="matrix(1,0,0,-1,0,46.125)"><g><path d="M8.82812,23.53125L8.71094,23.609375L8.82812,23.53125L8.71094,23.609375L1.875,29.97656Q0.0390625,31.73438,0,34.2734L0,34.3906Q0.0390625,36.5,1.32812,38.0625Q2.57812,39.585899999999995,4.64844,40.0156Q7.07031,40.4453,9.02344,39.0781Q9.57031,38.7266,10,38.2187Q10.2344,38.4922,10.5469,38.7266Q10.7422,38.9219,10.9766,39.0781Q12.9297,40.4453,15.3516,40.0547Q17.4219,39.625,18.6719,38.0625Q19.9609,36.5,20,34.3906L20,34.2734Q19.9609,31.73438,18.125,29.97656L11.2891,23.609375L11.1719,23.53125Q10.6641,23.0625,10,23.0625Q9.33594,23.0625,8.82812,23.53125ZM9.33594,36.1484L9.29688,36.1875L8.59375,36.9687Q7.89062,37.75,6.95312,38.0625Q6.01562,38.375,5,38.1797Q3.63281,37.9063,2.77344,36.8516Q1.91406,35.8359,1.875,34.3906L1.875,34.2734Q1.91406,32.55469,3.16406,31.34375L10,24.97656L16.8359,31.34375Q18.0859,32.55469,18.125,34.2734L18.125,34.3906Q18.0859,35.8359,17.2266,36.8516Q16.3672,37.9063,15,38.1797Q13.9844,38.375,13.0469,38.0625Q12.1094,37.75,11.4062,36.9687L10.7031,36.1875L10.6641,36.1484Q10.3906,35.875,10,35.875Q9.60938,35.875,9.33594,36.1484Z" fill="#6B7280" fill-opacity="1" style="mix-blend-mode:passthrough"/></g></g></g></g></svg>