<svg xmlns="http://www.w3.org/2000/svg" xmlns:xlink="http://www.w3.org/1999/xlink" fill="none" version="1.1" width="15" height="28" viewBox="0 0 15 28"><defs><clipPath id="master_svg0_1_083"><rect x="0" y="4" width="15" height="20" rx="0"/></clipPath></defs><g><rect x="0" y="0" width="15" height="28" rx="0" fill="#000000" fill-opacity="0" style="mix-blend-mode:passthrough"/><g clip-path="url(#master_svg0_1_083)"><g transform="matrix(1,0,0,-1,0,48.78125)"><g><path d="M8.4375,24.859375Q9.49219,26.148435,11.0156,28.335935Q12.5391,30.484375,13.75,32.789065Q14.9219,35.093725,15,36.851525Q14.9219,40.054725,12.8125,42.164024999999995Q10.7031,44.273425,7.5,44.351524999999995Q4.29688,44.273425,2.1875,42.164024999999995Q0.078125,40.054725,0,36.851525Q0.078125,35.093725,1.25,32.789065Q2.46094,30.484375,3.98438,28.335935Q5.50781,26.148435,6.5625,24.859375Q6.95312,24.390625,7.5,24.390625Q8.04688,24.390625,8.4375,24.859375ZM7.5,39.351525Q8.90625,39.312525,9.64844,38.101525Q10.3516,36.851525,9.64844,35.601525Q8.90625,34.390625,7.5,34.351565Q6.09375,34.390625,5.35156,35.601525Q4.64844,36.851525,5.35156,38.101525Q6.09375,39.312525,7.5,39.351525Z" fill="#6B7280" fill-opacity="1" style="mix-blend-mode:passthrough"/></g></g></g></g></svg>